<svg viewBox="0 0 512 512" xmlns="http://www.w3.org/2000/svg" role="img" aria-label="ComexPilot">
  <defs>
    <linearGradient id="disc" x1="70" y1="120" x2="452" y2="440" gradientUnits="userSpaceOnUse">
      <stop offset="0" stop-color="#3B57F0" />
      <stop offset="0.55" stop-color="#4B36D8" />
      <stop offset="1" stop-color="#6C29D8" />
    </linearGradient>
    <linearGradient id="eye" x1="228" y1="188" x2="266" y2="228" gradientUnits="userSpaceOnUse">
      <stop offset="0" stop-color="#8A5CFF" />
      <stop offset="1" stop-color="#4B41E6" />
    </linearGradient>
    <linearGradient id="beakTop" x1="372" y1="150" x2="472" y2="256" gradientUnits="userSpaceOnUse">
      <stop offset="0" stop-color="#FBA83A" />
      <stop offset="1" stop-color="#F8791C" />
    </linearGradient>
    <linearGradient id="beakBottom" x1="392" y1="288" x2="462" y2="352" gradientUnits="userSpaceOnUse">
      <stop offset="0" stop-color="#F8791C" />
      <stop offset="1" stop-color="#EC4A1B" />
    </linearGradient>
    <clipPath id="clip">
      <circle cx="256" cy="256" r="238" />
    </clipPath>
  </defs>
  <g clip-path="url(#clip)">
    <circle cx="256" cy="256" r="238" fill="url(#disc)" />
    <circle cx="300" cy="232" r="170" fill="#FFFFFF" />
    <path d="M 18 366 C 110 336 190 356 286 368 C 372 378 430 360 494 350 L 494 512 L 18 512 Z" fill="url(#disc)" />
    <path d="M 40 410 C 140 384 220 402 310 414 C 388 424 442 410 486 400" fill="none" stroke="#FFFFFF" stroke-width="15" stroke-linecap="round" />
    <path d="M 70 462 C 160 440 240 456 322 466 C 394 474 440 464 476 456" fill="none" stroke="#FFFFFF" stroke-width="15" stroke-linecap="round" />
    <path d="M 366 150 C 416 150 456 188 478 236 C 452 246 420 250 392 252 C 384 218 374 184 366 150 Z" fill="url(#beakTop)" />
    <path d="M 392 288 C 428 292 456 312 470 342 C 442 356 414 356 394 350 C 388 330 388 308 392 288 Z" fill="url(#beakBottom)" />
    <circle cx="246" cy="206" r="25" fill="url(#eye)" />
  </g>
</svg>
