<svg viewBox="0 0 512 512" xmlns="http://www.w3.org/2000/svg" role="img" aria-label="ComexPilot">
  <defs>
    <linearGradient id="disc" x1="90" y1="440" x2="430" y2="80" gradientUnits="userSpaceOnUse">
      <stop offset="0" stop-color="#3D5CF3" />
      <stop offset="0.5" stop-color="#4A39D9" />
      <stop offset="1" stop-color="#6E27D8" />
    </linearGradient>
    <linearGradient id="eye" x1="228" y1="186" x2="268" y2="228" gradientUnits="userSpaceOnUse">
      <stop offset="0" stop-color="#8A5CFF" />
      <stop offset="1" stop-color="#4A34E8" />
    </linearGradient>
    <linearGradient id="beakTop" x1="372" y1="130" x2="486" y2="244" gradientUnits="userSpaceOnUse">
      <stop offset="0" stop-color="#FBA637" />
      <stop offset="1" stop-color="#F6731E" />
    </linearGradient>
    <linearGradient id="beakBottom" x1="392" y1="296" x2="470" y2="360" gradientUnits="userSpaceOnUse">
      <stop offset="0" stop-color="#F5701C" />
      <stop offset="1" stop-color="#EE4A1C" />
    </linearGradient>
    <clipPath id="clip">
      <circle cx="256" cy="256" r="246" />
    </clipPath>
  </defs>
  <g clip-path="url(#clip)">
    <circle cx="256" cy="256" r="246" fill="url(#disc)" />
    <circle cx="296" cy="236" r="170" fill="#FFFFFF" />
    <path d="M 6 356 C 120 334 210 354 300 356 C 372 358 430 336 504 322 L 504 520 L 6 520 Z" fill="url(#disc)" />
    <g fill="none" stroke="#FFFFFF" stroke-linecap="round">
      <path d="M 44 388 C 150 366 246 384 336 388 C 406 391 452 372 498 344" stroke-width="16" />
      <path d="M 60 436 C 165 416 250 432 336 438 C 404 443 448 428 494 402" stroke-width="16" />
      <path d="M 150 480 C 230 466 300 476 366 480 C 410 483 440 474 470 462" stroke-width="13" />
    </g>
    <path d="M 372 150 C 384 108 402 78 424 66 C 452 96 480 150 494 208 C 470 224 430 236 388 244 C 382 212 376 180 372 150 Z" fill="url(#beakTop)" />
    <path d="M 392 296 C 430 300 466 318 484 348 C 456 366 420 366 396 356 C 388 338 388 314 392 296 Z" fill="url(#beakBottom)" />
    <circle cx="244" cy="205" r="25" fill="url(#eye)" />
  </g>
</svg>
